<svg xmlns="http://www.w3.org/2000/svg" fill="currentColor" stroke="fill" class="mx-1 w-5 h-5 text-center -rotate-90 text-textMainBody hover:text-primary hover:cursor-pointer" viewBox="0 0 24 24" width="1em" height="1em"><path stroke-linecap="round" stroke-linejoin="round" stroke-width="2" d="M3 5a2 2 0 0 1 2-2h3.28a1 1 0 0 1 .948.684l1.498 4.493a1 1 0 0 1-.502 1.21l-2.257 1.13a11.04 11.04 0 0 0 5.516 5.516l1.13-2.257a1 1 0 0 1 1.21-.502l4.493 1.498a1 1 0 0 1 .684.949V19a2 2 0 0 1-2 2h-1C9.716 21 3 14.284 3 6z"></path></svg>